<svg id="icons" enable-background="new 0 0 64 64" height="512" viewBox="0 0 64 64" width="512" xmlns="http://www.w3.org/2000/svg"><path d="m15 2.995-12.01 12.01h6 34 6 .01l6.01-6.02 5.99-5.99z" fill="#4a89dc"/><path d="m8.99 15.005v46h11.01v-4-15h12v15 4h10.99v-46z" fill="#5d9cec"/><path d="m49 15.005v46h-6.01v-46h6z" fill="#87bcf4"/><path d="m61.01 2.995v46l-6 6v-46.01l5.99-5.99z" fill="#4a89dc"/><path d="m2.99 15.005h6v46h-6z" fill="#87bcf4"/><path d="m55.01 8.985v46.01l-6.01 6.01v-46z" fill="#5d9cec"/><path d="m31.99 7.005c8.83 0 16.01.9 16.01 2 0 1.101-7.18 1.99-16.01 1.99-8.82 0-16-.89-16-1.99s7.18-2 16-2z" fill="#e6e9ed"/><path d="m20.99 37.016c-2.76 0-5-2.24-5-5 0-2.771 2.24-5 5-5h10c2.76 0 5 2.229 5 5 0 2.76-2.24 5-5 5-2.05 0-3.8-1.24-4.58-3h-.84c-.77 1.759-2.53 3-4.58 3z" fill="#e6e9ed"/><path d="m20 57.005h12v4h-12z" fill="#545c66"/><path d="m20 42.005h12v15h-12z" fill="#656d78"/><path d="m49 62.008h-46.004c-.553 0-1-.447-1-1v-46.004c0-.553.447-1 1-1h46.004c.553 0 1 .447 1 1v46.004c0 .553-.447 1-1 1zm-45.004-2h44.004v-44.004h-44.004z"/><path d="m61.012 49.996c-.553 0-1-.447-1-1v-45.004h-45.004c-.553 0-1-.447-1-1s.447-1 1-1h46.004c.553 0 1 .447 1 1v46.004c0 .553-.448 1-1 1z"/><path d="m2.988 16.004c-.256 0-.512-.098-.707-.293-.391-.391-.391-1.023 0-1.414l12.012-12.012c.391-.391 1.023-.391 1.414 0s.391 1.023 0 1.414l-12.012 12.012c-.195.195-.451.293-.707.293z"/><path d="m48.992 16.004c-.256 0-.512-.098-.707-.293-.391-.391-.391-1.023 0-1.414l12.012-12.012c.391-.391 1.023-.391 1.414 0s.391 1.023 0 1.414l-12.012 12.012c-.195.195-.451.293-.707.293z"/><path d="m49 62.008c-.256 0-.512-.098-.707-.293-.391-.391-.391-1.023 0-1.414l12.012-12.012c.391-.391 1.023-.391 1.414 0s.391 1.023 0 1.414l-12.012 12.012c-.195.195-.451.293-.707.293z"/><path d="m31.998 11.993c-4.311 0-8.372-.21-11.436-.592-4.655-.579-5.566-1.318-5.566-2.4s.911-1.821 5.566-2.4c3.063-.382 7.125-.592 11.436-.592s8.372.21 11.436.592c4.655.579 5.566 1.318 5.566 2.4s-.911 1.821-5.566 2.4c-3.064.382-7.125.592-11.436.592zm-13.78-2.992c2.314.504 7.189.992 13.78.992s11.466-.488 13.78-.992c-2.314-.504-7.189-.992-13.78-.992s-11.466.488-13.78.992z"/><path d="m20.002 62.008c-.553 0-1-.447-1-1v-19c0-.553.447-1 1-1s1 .447 1 1v19c0 .553-.447 1-1 1z"/><path d="m32.004 43.008h-12.002c-.553 0-1-.447-1-1s.447-1 1-1h12.002c.553 0 1 .447 1 1s-.447 1-1 1z"/><path d="m32.004 62.008c-.553 0-1-.447-1-1v-19c0-.553.447-1 1-1s1 .447 1 1v19c0 .553-.447 1-1 1z"/><path d="m23.036 49.006c-.553 0-1.005-.447-1.005-1s.442-1 .994-1h.011c.552 0 1 .447 1 1s-.448 1-1 1z"/><path d="m26.039 49.006c-.553 0-1.005-.447-1.005-1s.442-1 .994-1h.011c.552 0 1 .447 1 1s-.448 1-1 1z"/><path d="m29.042 49.006c-.553 0-1.005-.447-1.005-1s.442-1 .994-1h.011c.552 0 1 .447 1 1s-.448 1-1 1z"/><path d="m23.036 52.009c-.553 0-1.005-.447-1.005-1s.442-1 .994-1h.011c.552 0 1 .447 1 1s-.448 1-1 1z"/><path d="m26.039 52.009c-.553 0-1.005-.447-1.005-1s.442-1 .994-1h.011c.552 0 1 .447 1 1s-.448 1-1 1z"/><path d="m29.042 52.009c-.553 0-1.005-.447-1.005-1s.442-1 .994-1h.011c.552 0 1 .447 1 1s-.448 1-1 1z"/><path d="m23.036 55.012c-.553 0-1.005-.447-1.005-1s.442-1 .994-1h.011c.552 0 1 .447 1 1s-.448 1-1 1z"/><path d="m26.039 55.012c-.553 0-1.005-.447-1.005-1s.442-1 .994-1h.011c.552 0 1 .447 1 1s-.448 1-1 1z"/><path d="m29.042 55.012c-.553 0-1.005-.447-1.005-1s.442-1 .994-1h.011c.552 0 1 .447 1 1s-.448 1-1 1z"/><path d="m29.009 46.007h-6.007c-.553 0-1-.447-1-1s.447-1 1-1h6.007c.553 0 1 .447 1 1s-.447 1-1 1z"/><path d="m32.004 58.01h-12.002c-.553 0-1-.447-1-1s.447-1 1-1h12.002c.553 0 1 .447 1 1s-.447 1-1 1z"/><path d="m55.018 55.99c-.553 0-1-.447-1-1v-46.011c0-.553.447-1 1-1s1 .447 1 1v46.011c0 .553-.448 1-1 1z"/><path d="m30.995 38.012c-2.032 0-3.9-1.029-5-2.691-1.1 1.662-2.968 2.691-5 2.691-3.309 0-6-2.691-6-6s2.691-6 6-6h10c3.309 0 6 2.691 6 6s-2.691 6-6 6zm-5.422-5h.844c.397 0 .757.235.916.599.639 1.459 2.076 2.401 3.662 2.401 2.206 0 4-1.794 4-4s-1.794-4-4-4h-10c-2.206 0-4 1.794-4 4s1.794 4 4 4c1.586 0 3.023-.942 3.662-2.401.159-.364.519-.599.916-.599z"/><path d="m20.995 35.012c-.553 0-1-.447-1-1v-4c0-.553.447-1 1-1s1 .447 1 1v4c0 .552-.447 1-1 1z"/><path d="m22.995 33.012h-4c-.553 0-1-.447-1-1s.447-1 1-1h4c.553 0 1 .447 1 1s-.447 1-1 1z"/><path d="m29.059 33.009c-.553 0-1.005-.447-1.005-1s.442-1 .994-1h.011c.552 0 1 .447 1 1s-.449 1-1 1z"/><path d="m31.059 31.009c-.553 0-1.005-.447-1.005-1s.442-1 .994-1h.011c.552 0 1 .447 1 1s-.449 1-1 1z"/><path d="m31.061 35.011c-.553 0-1.005-.447-1.005-1s.442-1 .994-1h.011c.552 0 1 .447 1 1s-.449 1-1 1z"/><path d="m33.061 33.011c-.553 0-1.005-.447-1.005-1s.442-1 .994-1h.011c.552 0 1 .447 1 1s-.449 1-1 1z"/><path d="m25.977 27.002c-.553 0-1-.447-1-1 0-1.654 1.346-3 3-3 .553 0 1 .447 1 1s-.447 1-1 1c-.552 0-1 .448-1 1 0 .553-.448 1-1 1z"/><path d="m30.976 25c-.553 0-1-.447-1-1s.447-1 1-1c.551 0 .998-.447.998-.998s-.447-.998-.998-.998c-.553 0-1-.447-1-1s.447-1 1-1c1.653 0 2.998 1.345 2.998 2.998s-1.345 2.998-2.998 2.998z"/><path d="m30.976 21.003h-9.996c-.553 0-1-.447-1-1s.447-1 1-1h9.996c.553 0 1 .447 1 1s-.448 1-1 1z"/><path d="m30.976 25.002h-2.999c-.553 0-1-.447-1-1s.447-1 1-1h2.999c.553 0 1 .447 1 1s-.448 1-1 1z"/><path d="m25.977 28.004c-.553 0-1-.447-1-1v-1.002c0-.553.447-1 1-1s1 .447 1 1v1.002c0 .553-.448 1-1 1z"/><path d="m8.994 62.008c-.553 0-1-.447-1-1v-46.004c0-.553.447-1 1-1s1 .447 1 1v46.004c0 .553-.447 1-1 1z"/><path d="m42.996 62.008c-.553 0-1-.447-1-1v-46.004c0-.553.447-1 1-1s1 .447 1 1v46.004c0 .553-.447 1-1 1z"/></svg>